<svg version="1.1" id="Layer_1" xmlns="http://www.w3.org/2000/svg" xmlns:xlink="http://www.w3.org/1999/xlink" x="0px" y="0px"
	 width="100%" viewBox="0 0 1024 1024" enable-background="new 0 0 1024 1024" xml:space="preserve">
<path fill="#000000" opacity="1.000000" stroke="none" 
	d="
M638.247437,755.409363 
	C630.609253,756.957458 623.322632,757.446716 615.970581,757.406677 
	C600.138428,757.320435 584.304321,757.449585 568.473633,757.266724 
	C558.747803,757.154419 551.101624,749.586548 550.092957,739.568726 
	C549.272034,731.415161 555.385315,723.164612 563.878662,721.185730 
	C565.796936,720.738770 567.840881,720.703186 569.827515,720.698059 
	C585.660034,720.657410 601.506897,721.096008 617.322021,720.567444 
	C641.989014,719.743042 664.139526,711.326782 683.971741,696.715698 
	C684.503540,696.323914 684.973816,695.837769 685.423523,695.350159 
	C685.628784,695.127625 685.713989,694.794312 685.968323,694.278809 
	C684.145203,694.021362 682.411255,693.751953 680.670898,693.534668 
	C670.404358,692.252808 664.172058,684.705017 664.717102,674.196533 
	C665.208496,664.722717 672.680115,657.737549 682.582153,657.670349 
	C693.414429,657.596802 704.249756,657.544800 715.079407,657.730957 
	C718.656616,657.792542 720.945068,656.713257 722.747803,653.506958 
	C726.546387,646.750977 730.715942,640.203491 735.034729,633.072693 
	C730.319275,631.719604 726.501953,632.409241 722.764709,632.199158 
	C707.918701,631.364197 699.564819,616.759766 706.849426,604.205444 
	C710.004089,598.768738 714.755920,595.735107 721.154297,595.665283 
	C726.780334,595.603882 732.407532,595.652527 737.597107,595.652527 
	C739.243774,593.221619 737.960144,591.818848 737.272461,590.392212 
	C730.618835,576.589172 723.925537,562.805115 717.249817,549.012695 
	C714.810364,543.972717 713.764404,538.644592 713.806580,533.050781 
	C713.939514,515.402893 713.801697,497.801514 710.160034,480.377869 
	C703.994446,450.879333 689.521057,426.200134 668.027527,405.310486 
	C644.754089,382.690948 616.377319,369.425568 585.504761,361.710754 
	C571.471680,358.203949 562.746277,351.675690 556.633850,338.353424 
	C539.204163,300.364563 520.518921,262.951019 502.239227,225.354111 
	C500.697021,222.182175 499.756104,217.748154 495.390472,217.509583 
	C490.683807,217.252365 489.394989,221.837875 487.654816,225.042374 
	C468.018188,261.202423 447.818268,297.046478 427.416748,332.777588 
	C425.290009,336.502350 424.251556,340.262115 424.264404,344.610443 
	C424.380859,384.108337 424.400635,423.606995 424.243317,463.104584 
	C424.226349,467.369568 425.709045,469.486450 429.378754,471.581390 
	C462.326294,490.390411 482.488373,518.637634 486.965851,556.256775 
	C492.150391,599.816895 477.037903,635.905334 441.450897,662.298767 
	C424.122650,675.150391 404.003052,680.570129 382.483398,681.380188 
	C331.251007,683.308899 291.550232,649.804688 275.716034,606.834351 
	C257.415100,557.169983 277.824158,499.657013 323.490021,472.688721 
	C327.529572,470.303131 328.843079,467.696625 328.802887,463.190125 
	C328.601990,440.692963 328.593231,418.192169 328.753571,395.694336 
	C328.847778,382.481689 340.745087,374.450592 353.122345,378.931519 
	C360.157654,381.478485 364.142731,387.817169 364.190186,397.326294 
	C364.301636,419.658020 364.245667,441.990540 364.255524,464.322754 
	C364.256470,466.489319 364.025696,468.681091 364.272858,470.818359 
	C366.019684,485.924042 359.844025,495.761932 346.242065,502.978699 
	C324.624634,514.448242 310.974548,532.811340 306.915070,557.217712 
	C299.376160,602.543701 333.331116,641.970398 374.893829,643.987000 
	C414.239685,645.895874 443.745941,618.622314 450.403015,584.071411 
	C457.017761,549.740234 438.809021,516.339355 406.342438,501.589905 
	C402.998596,500.070831 399.645844,498.609924 396.776978,496.249878 
	C391.749115,492.113617 388.725403,486.887085 388.693024,480.307678 
	C388.451813,431.317078 388.110321,382.325775 388.228516,333.335693 
	C388.251801,323.680267 388.244751,314.028992 388.104156,304.374847 
	C387.774475,281.735260 389.120239,259.095093 388.077423,236.453644 
	C387.916199,232.953369 388.245605,229.427261 389.281372,226.077454 
	C391.717194,218.199417 399.465424,213.221344 407.376892,214.257462 
	C417.220459,215.546631 423.943756,222.535461 424.230408,232.253357 
	C424.471100,240.412689 424.295685,248.584290 424.303711,256.750458 
	C424.305450,258.532227 424.303925,260.313965 425.318573,262.448303 
	C428.878021,256.162506 432.507843,249.915314 435.983002,243.583237 
	C444.557739,227.959213 452.633820,212.047638 462.355347,197.081619 
	C476.649078,175.076797 508.184631,173.420242 524.916626,193.650604 
	C531.163940,201.204117 534.872314,210.169479 539.204224,218.781723 
	C546.091003,232.473404 552.789551,246.259659 559.601746,259.989044 
	C560.327820,261.452301 560.919434,263.080994 562.825256,264.021606 
	C566.363159,260.773895 568.466248,256.382294 571.168030,252.469589 
	C579.496765,240.407898 587.550476,228.154602 595.976379,216.162216 
	C602.451233,206.946793 611.447021,201.435471 622.780762,200.769272 
	C640.209717,199.744797 655.683044,211.390793 659.057861,228.800949 
	C665.159363,260.278076 670.612671,291.880920 676.322876,323.433746 
	C678.838318,337.333099 681.411804,351.223022 683.758484,365.150970 
	C684.416504,369.056396 686.478333,371.835907 689.215942,374.372040 
	C720.329468,403.195343 739.977478,438.274170 746.817200,480.282471 
	C749.308960,495.586395 750.198669,511.034637 750.175293,526.524963 
	C750.168823,530.806030 751.063538,534.674438 752.941406,538.523438 
	C761.194702,555.439819 769.100891,572.527649 777.500427,589.369995 
	C783.488892,601.377869 783.891174,613.132385 778.343567,625.393372 
	C767.612549,649.110229 756.423889,672.535889 740.105408,693.084290 
	C713.849060,726.146301 680.899475,748.302124 638.247437,755.409363 
M599.207153,276.644592 
	C595.890198,281.426788 593.109863,286.719971 589.144531,290.884827 
	C580.883728,299.561188 580.633850,308.146271 586.940613,317.973297 
	C589.142822,321.404694 591.259460,323.859955 595.238342,325.071259 
	C607.799194,328.895020 620.257446,333.037689 632.245178,338.478455 
	C635.326965,339.877136 638.102234,342.129913 642.381592,342.550049 
	C636.737061,308.724701 630.774109,275.446411 623.517212,240.887329 
	C614.914124,253.530899 607.255920,264.785858 599.207153,276.644592 
z"/>
<path fill="#000000" opacity="1.000000" stroke="none" 
	d="
M296.931915,764.082397 
	C265.947174,735.861816 241.907593,703.014709 225.338501,664.876099 
	C213.393402,637.380920 205.882187,608.738464 203.533173,578.720825 
	C199.106064,522.147766 209.699493,468.572510 236.240936,418.542297 
	C259.029541,375.586151 290.417114,339.972870 331.572632,313.465424 
	C336.110626,310.542572 341.010864,308.247589 346.605103,309.195526 
	C353.677887,310.394043 358.892944,314.078217 361.205902,321.210785 
	C363.570953,328.504059 361.823364,335.008514 356.283142,339.866577 
	C348.279358,346.884827 339.484436,352.996948 331.427307,359.958862 
	C290.347870,395.454346 260.494232,438.175903 246.883377,491.421631 
	C239.718674,519.449951 237.085068,548.002014 239.644852,576.586731 
	C244.243500,627.939270 263.557556,673.491638 297.816986,712.398254 
	C340.929352,761.358643 395.703339,789.352112 459.038177,801.691101 
	C490.832611,807.885315 522.771301,807.951111 554.815369,802.984863 
	C581.651978,798.825623 607.303833,791.012329 632.055786,779.983887 
	C636.755005,777.890076 641.390869,775.489990 646.550659,774.673279 
	C655.819214,773.206238 663.841370,777.696533 667.061584,786.020752 
	C670.202209,794.139221 667.407593,802.567566 659.499817,807.690674 
	C652.343567,812.326904 644.417175,815.511536 636.539185,818.651917 
	C606.224426,830.736267 574.863953,838.563232 542.299866,841.441284 
	C457.228027,848.960144 380.355225,827.432739 311.813354,776.431702 
	C306.743713,772.659546 302.064026,768.363342 296.931915,764.082397 
z"/>
<path fill="#000000" opacity="1.000000" stroke="none" 
	d="
M595.759155,507.172424 
	C615.604858,521.165283 629.467773,539.655640 639.849365,560.899353 
	C645.932678,573.347656 640.858093,584.893372 628.155762,588.556885 
	C621.516174,590.471802 615.947571,588.527161 611.525940,583.519409 
	C609.460754,581.180298 607.771790,578.414307 606.345764,575.620483 
	C594.411560,552.240662 576.675903,535.476501 551.761475,526.374756 
	C536.953308,520.965027 532.808960,505.618561 542.988281,495.481476 
	C547.397949,491.090088 552.849121,489.238983 558.963196,490.364136 
	C572.484802,492.852478 584.314941,499.193268 595.759155,507.172424 
z"/>
<path fill="#000000" opacity="1.000000" stroke="none" 
	d="
M796.323364,707.774780 
	C802.206238,716.658752 802.387024,724.015137 795.952515,731.922852 
	C784.250916,746.303711 770.755249,758.916870 755.994873,770.140442 
	C749.771240,774.872803 743.785278,780.002869 736.856750,783.691711 
	C724.070190,790.499451 710.946716,784.083862 709.235718,770.071106 
	C708.336670,762.707642 711.635010,756.772278 717.532410,752.413452 
	C730.930908,742.510742 744.044800,732.273621 755.815002,720.430908 
	C759.804443,716.416870 763.707581,712.315796 767.602966,708.209717 
	C776.435669,698.899536 786.672119,698.626465 796.323364,707.774780 
z"/>
<path fill="#000000" opacity="1.000000" stroke="none" 
	d="
M500.812500,375.675873 
	C498.860840,383.813568 497.015961,391.566528 495.250763,399.337585 
	C492.872498,409.807831 484.147186,417.101044 475.327484,415.917908 
	C464.585205,414.476868 458.325043,405.530884 459.862793,394.225861 
	C463.073120,370.625122 470.367798,348.271240 480.153656,326.657013 
	C481.529205,323.618805 483.082123,320.682434 485.287567,318.133392 
	C491.333527,311.145416 500.105164,309.678436 508.273621,314.312927 
	C515.715027,318.534943 519.246094,327.633636 516.289551,335.823181 
	C514.598755,340.506653 512.496460,345.056702 510.348877,349.556793 
	C506.393219,357.845703 503.266174,366.419159 500.812500,375.675873 
z"/>
<path fill="#000000" opacity="1.000000" stroke="none" 
	d="
M387.998596,585.039185 
	C375.353424,584.826050 363.207794,584.620605 351.062408,584.398621 
	C340.558533,584.206543 332.958527,577.147583 332.685150,567.352112 
	C332.389893,556.771912 339.432312,548.168213 349.953003,547.893799 
	C368.419189,547.412231 386.913025,547.442078 405.382385,547.846191 
	C415.636566,548.070435 423.135040,556.135498 423.340179,565.727295 
	C423.555176,575.779358 417.018494,583.002441 406.449097,584.513672 
	C400.477783,585.367493 394.482208,584.893555 387.998596,585.039185 
z"/>
<path fill="#000000" opacity="1.000000" stroke="none" 
	d="
M573.990723,688.208618 
	C558.787354,691.596924 543.844971,693.955139 528.674377,694.211487 
	C520.244019,694.353882 513.409302,688.582214 511.221466,680.394653 
	C509.209259,672.864319 512.449768,664.843262 519.269470,660.477173 
	C523.834717,657.554382 529.158569,657.581116 534.205994,657.117737 
	C547.499451,655.897522 560.415039,652.810730 573.425964,650.111694 
	C582.913757,648.143494 590.070312,650.931946 594.486450,657.772156 
	C600.619629,667.271851 597.436646,679.203369 587.179932,683.938416 
	C583.137207,685.804688 578.672485,686.756714 573.990723,688.208618 
z"/>
<path fill="#000000" opacity="1.000000" stroke="none" 
	d="
M551.000122,595.657471 
	C560.496338,595.656311 569.492737,595.684082 578.488770,595.647034 
	C588.142700,595.607239 596.124023,602.321960 597.261475,611.510742 
	C598.397034,620.683838 592.703369,628.797363 583.335693,631.197510 
	C581.253174,631.731140 579.082031,632.201111 576.949280,632.211731 
	C560.456848,632.293823 543.962341,632.383423 527.471436,632.203613 
	C518.631165,632.107178 511.672180,626.441833 509.921844,618.573730 
	C507.963562,609.770691 511.376465,601.806641 518.872375,597.668335 
	C521.564209,596.182251 524.437134,595.617371 527.509888,595.643616 
	C535.172791,595.709045 542.836609,595.660583 551.000122,595.657471 
z"/>
</svg>